<svg width="30" height="35" viewBox="0 0 30 35" fill="none" xmlns="http://www.w3.org/2000/svg">
<g clip-path="url(#clip0_17_84)">
<path d="M30 9.77321e-07L18.5595 0C12.1329 -5.48997e-07 6.9231 5.09077 6.9231 11.3706V15.7849H18.3637C24.7902 15.7849 30 10.6941 30 4.4143V9.77321e-07Z" fill="#007BFF"/>
<path d="M30 9.77321e-07L18.5595 0C12.1329 -5.48997e-07 6.9231 5.09077 6.9231 11.3706V15.7849H18.3637C24.7902 15.7849 30 10.6941 30 4.4143V9.77321e-07Z" fill="#007BFF"/>
<path d="M26.2018 2.57129H17.9244C13.9144 2.57129 10.6637 5.74776 10.6637 9.66613C10.6637 11.6253 12.2891 13.2136 14.2941 13.2136H15.8431C21.564 13.2136 26.2018 8.68174 26.2018 3.09146V2.57129Z" fill="white"/>
<path d="M6.9231 19.1674H19.2307C25.1784 19.1674 30 23.8787 30 29.6905C30 32.5966 27.5893 34.9522 24.6155 34.9522H18.5595C12.1329 34.9522 6.9231 29.8614 6.9231 23.5817V19.1674Z" fill="#007BFF"/>
<path d="M6.9231 19.1674H18.3637C24.7902 19.1674 30 24.258 30 30.5379V34.9522H18.5595C12.1329 34.9522 6.9231 29.8614 6.9231 23.5817V19.1674Z" fill="#007BFF"/>
<path d="M26.2593 32.3809H17.982C13.972 32.3809 10.7213 29.2044 10.7213 25.286C10.7213 23.3269 12.3467 21.7386 14.3517 21.7386H15.9007C21.6217 21.7386 26.2593 26.2704 26.2593 31.8607V32.3809Z" fill="white"/>
<path d="M0 34.9522C1.91175 34.9522 3.46155 33.4378 3.46155 31.5696V3.38247C3.46155 1.51438 1.91175 0 0 0V34.9522Z" fill="#007BFF"/>
</g>
<defs>
<clipPath id="clip0_17_84">
<rect width="30" height="35" fill="white"/>
</clipPath>
</defs>
</svg>
