<svg width="51" height="51" viewBox="0 0 51 51" fill="none" xmlns="http://www.w3.org/2000/svg">
<rect width="51" height="51" rx="25.5" fill="white"/>
<g clip-path="url(#clip0_160_83)">
<path d="M41 8L29.5595 8C23.1329 8 17.9231 13.0908 17.9231 19.3706V23.7849H29.3637C35.7902 23.7849 41 18.6941 41 12.4143V8Z" fill="#007BFF"/>
<path d="M41 8L29.5595 8C23.1329 8 17.9231 13.0908 17.9231 19.3706V23.7849H29.3637C35.7902 23.7849 41 18.6941 41 12.4143V8Z" fill="#007BFF"/>
<path d="M37.2018 10.5713H28.9244C24.9144 10.5713 21.6637 13.7478 21.6637 17.6661C21.6637 19.6253 23.2891 21.2136 25.2941 21.2136H26.8431C32.564 21.2136 37.2018 16.6817 37.2018 11.0915V10.5713Z" fill="white"/>
<path d="M17.9231 27.1674H30.2307C36.1784 27.1674 41 31.8787 41 37.6905C41 40.5966 38.5893 42.9522 35.6155 42.9522H29.5595C23.1329 42.9522 17.9231 37.8614 17.9231 31.5817V27.1674Z" fill="#007BFF"/>
<path d="M17.9231 27.1674H29.3637C35.7902 27.1674 41 32.258 41 38.5379V42.9522H29.5595C23.1329 42.9522 17.9231 37.8614 17.9231 31.5817V27.1674Z" fill="#007BFF"/>
<path d="M37.2593 40.3809H28.982C24.972 40.3809 21.7213 37.2044 21.7213 33.286C21.7213 31.3269 23.3467 29.7386 25.3517 29.7386H26.9007C32.6217 29.7386 37.2593 34.2704 37.2593 39.8607V40.3809Z" fill="white"/>
<path d="M11 42.9522C12.9117 42.9522 14.4615 41.4378 14.4615 39.5696V11.3825C14.4615 9.51438 12.9117 8 11 8V42.9522Z" fill="#007BFF"/>
</g>
<defs>
<clipPath id="clip0_160_83">
<rect width="30" height="35" fill="white" transform="translate(11 8)"/>
</clipPath>
</defs>
</svg>
